<svg xmlns="http://www.w3.org/2000/svg" viewBox="0 0 64 64">
  <defs>
    <linearGradient id="bg" x1="0%" x2="100%" y1="0%" y2="100%">
      <stop offset="0%" stop-color="#2f89bf"/>
      <stop offset="100%" stop-color="#1bb4d1"/>
    </linearGradient>
  </defs>
  <rect width="64" height="64" rx="16" fill="url(#bg)"/>
  <path
    d="M15 38c0-9.8 7.8-17.5 17-17.5 5.8 0 10.9 2.8 14 7.2l-4.4 2.9c-2.1-3-5.6-4.9-9.6-4.9-6.2 0-11.5 4.8-11.5 12.3S25.8 50.3 32 50.3c4.2 0 7.7-2 9.8-5.3l4.5 2.8c-3.1 4.7-8.4 7.7-14.3 7.7-9.2 0-17-7.7-17-17.5Z"
    fill="#ffffff"
  />
  <circle cx="44" cy="22" r="5" fill="#ffffff" opacity="0.92"/>
</svg>
